# xmcd CD database file
#
# Track frame offsets:
#	150
#	23740
#	48723
#	84197
#	102019
#	138789
#	174987
#	231143
#	260905
#	304035
#
# Disc length: 4442 seconds
#
# Revision: 0
# Processed by: cddbd v1.5.2PL0 Copyright (c) Steve Scherf et al.
# Submitted via: Feurio! 1.68 - http://www.feurio.com
#
DISCID=7611580a
DTITLE=John Mayall - 70th Birthday Concert Cd 1
DYEAR=1900
DGENRE=
TTITLE0=Grits and groceries
TTITLE1=Jacksboro highway
TTITLE2=Southside story
TTITLE3=Kids got the blues
TTITLE4=Ditry water
TTITLE5=Somebody`s acting like a child
TTITLE6=Blues for the lost days
TTITLE7=Walking on sunset
TTITLE8=Oh, pretty woman
TTITLE9=No big hurry
EXTD=
EXTT0=
EXTT1=
EXTT2=
EXTT3=
EXTT4=
EXTT5=
EXTT6=
EXTT7=
EXTT8=
EXTT9=
PLAYORDER=
